STARTFONT 2.1
FONT -FontForge-Darn-Medium-R-Normal--15-110-100-100-P-69-ISO10646-1
SIZE 11 100 100
FONTBOUNDINGBOX 34 15 -20 -3
COMMENT "Generated by fontforge, http://fontforge.sourceforge.net"
COMMENT "Copyright (c) 2019, Gabriel Holodak"
STARTPROPERTIES 34
FOUNDRY "FontForge"
FAMILY_NAME "Darn"
WEIGHT_NAME "Medium"
SLANT "R"
SETWIDTH_NAME "Normal"
ADD_STYLE_NAME ""
PIXEL_SIZE 15
POINT_SIZE 110
RESOLUTION_X 100
RESOLUTION_Y 100
SPACING "P"
AVERAGE_WIDTH 69
CHARSET_REGISTRY "ISO10646"
CHARSET_ENCODING "1"
FONTNAME_REGISTRY ""
CHARSET_COLLECTIONS "ISO10646-1"
FONT_NAME "DarnMedium"
FACE_NAME "Darn Medium"
COPYRIGHT "Copyright (c) 2019, Gabriel Holodak"
FONT_VERSION "000.101"
FONT_ASCENT 12
FONT_DESCENT 3
UNDERLINE_POSITION -2
UNDERLINE_THICKNESS 1
X_HEIGHT 6
CAP_HEIGHT 8
RAW_ASCENT 800
RAW_DESCENT 200
NORM_SPACE 7
RELATIVE_WEIGHT 50
RELATIVE_SETWIDTH 50
FIGURE_WIDTH 7
AVG_LOWERCASE_WIDTH 70
AVG_UPPERCASE_WIDTH 70
ENDPROPERTIES
CHARS 372
STARTCHAR space
ENCODING 32
SWIDTH 500 0
DWIDTH 7 0
BBX 1 1 4 0
BITMAP
00
ENDCHAR
STARTCHAR exclam
ENCODING 33
SWIDTH 500 0
DWIDTH 7 0
BBX 1 9 3 0
BITMAP
80
80
80
80
80
80
00
80
80
ENDCHAR
STARTCHAR quotedbl
ENCODING 34
SWIDTH 500 0
DWIDTH 7 0
BBX 3 3 2 7
BITMAP
A0
A0
A0
ENDCHAR
STARTCHAR numbersign
ENCODING 35
SWIDTH 500 0
DWIDTH 7 0
BBX 6 9 1 0
BITMAP
48
48
FC
48
48
48
FC
48
48
ENDCHAR
STARTCHAR dollar
ENCODING 36
SWIDTH 500 0
DWIDTH 7 0
BBX 5 11 1 -1
BITMAP
20
70
A8
A0
A0
70
28
28
A8
70
20
ENDCHAR
STARTCHAR percent
ENCODING 37
SWIDTH 500 0
DWIDTH 7 0
BBX 6 9 1 0
BITMAP
44
A8
A8
50
30
28
54
54
88
ENDCHAR
STARTCHAR ampersand
ENCODING 38
SWIDTH 500 0
DWIDTH 7 0
BBX 6 9 1 0
BITMAP
30
48
48
30
60
94
88
88
74
ENDCHAR
STARTCHAR quotesingle
ENCODING 39
SWIDTH 500 0
DWIDTH 7 0
BBX 1 3 3 7
BITMAP
80
80
80
ENDCHAR
STARTCHAR parenleft
ENCODING 40
SWIDTH 500 0
DWIDTH 7 0
BBX 3 11 2 -1
BITMAP
20
40
40
80
80
80
80
80
40
40
20
ENDCHAR
STARTCHAR parenright
ENCODING 41
SWIDTH 500 0
DWIDTH 7 0
BBX 3 11 2 -1
BITMAP
80
40
40
20
20
20
20
20
40
40
80
ENDCHAR
STARTCHAR asterisk
ENCODING 42
SWIDTH 500 0
DWIDTH 7 0
BBX 5 5 1 2
BITMAP
20
A8
70
A8
20
ENDCHAR
STARTCHAR plus
ENCODING 43
SWIDTH 500 0
DWIDTH 7 0
BBX 5 5 1 2
BITMAP
20
20
F8
20
20
ENDCHAR
STARTCHAR comma
ENCODING 44
SWIDTH 500 0
DWIDTH 7 0
BBX 2 4 2 -2
BITMAP
40
40
40
80
ENDCHAR
STARTCHAR hyphen
ENCODING 45
SWIDTH 500 0
DWIDTH 7 0
BBX 4 1 2 4
BITMAP
F0
ENDCHAR
STARTCHAR period
ENCODING 46
SWIDTH 500 0
DWIDTH 7 0
BBX 1 2 3 0
BITMAP
80
80
ENDCHAR
STARTCHAR slash
ENCODING 47
SWIDTH 500 0
DWIDTH 7 0
BBX 5 10 1 0
BITMAP
08
08
10
10
20
20
40
40
80
80
ENDCHAR
STARTCHAR zero
ENCODING 48
SWIDTH 500 0
DWIDTH 7 0
BBX 5 9 1 0
BITMAP
70
88
98
A8
A8
A8
C8
88
70
ENDCHAR
STARTCHAR one
ENCODING 49
SWIDTH 500 0
DWIDTH 7 0
BBX 5 9 1 0
BITMAP
20
60
A0
20
20
20
20
20
F8
ENDCHAR
STARTCHAR two
ENCODING 50
SWIDTH 500 0
DWIDTH 7 0
BBX 5 9 1 0
BITMAP
70
88
08
10
20
40
80
80
F8
ENDCHAR
STARTCHAR three
ENCODING 51
SWIDTH 500 0
DWIDTH 7 0
BBX 5 9 1 0
BITMAP
70
88
08
08
30
08
08
88
70
ENDCHAR
STARTCHAR four
ENCODING 52
SWIDTH 500 0
DWIDTH 7 0
BBX 6 9 1 0
BITMAP
08
18
28
48
88
FC
08
08
08
ENDCHAR
STARTCHAR five
ENCODING 53
SWIDTH 500 0
DWIDTH 7 0
BBX 5 9 1 0
BITMAP
F8
80
80
80
F0
08
08
88
70
ENDCHAR
STARTCHAR six
ENCODING 54
SWIDTH 500 0
DWIDTH 7 0
BBX 5 9 1 0
BITMAP
70
88
80
80
F0
88
88
88
70
ENDCHAR
STARTCHAR seven
ENCODING 55
SWIDTH 500 0
DWIDTH 7 0
BBX 5 9 1 0
BITMAP
F8
08
08
10
10
20
20
20
20
ENDCHAR
STARTCHAR eight
ENCODING 56
SWIDTH 500 0
DWIDTH 7 0
BBX 5 9 1 0
BITMAP
70
88
88
88
70
88
88
88
70
ENDCHAR
STARTCHAR nine
ENCODING 57
SWIDTH 500 0
DWIDTH 7 0
BBX 5 9 1 0
BITMAP
70
88
88
88
78
08
08
88
70
ENDCHAR
STARTCHAR colon
ENCODING 58
SWIDTH 500 0
DWIDTH 7 0
BBX 1 6 3 1
BITMAP
80
80
00
00
80
80
ENDCHAR
STARTCHAR semicolon
ENCODING 59
SWIDTH 500 0
DWIDTH 7 0
BBX 2 9 2 -2
BITMAP
40
40
00
00
00
40
40
40
80
ENDCHAR
STARTCHAR less
ENCODING 60
SWIDTH 500 0
DWIDTH 7 0
BBX 5 9 1 0
BITMAP
08
10
20
40
80
40
20
10
08
ENDCHAR
STARTCHAR equal
ENCODING 61
SWIDTH 500 0
DWIDTH 7 0
BBX 5 5 1 2
BITMAP
F8
00
00
00
F8
ENDCHAR
STARTCHAR greater
ENCODING 62
SWIDTH 500 0
DWIDTH 7 0
BBX 5 9 1 0
BITMAP
80
40
20
10
08
10
20
40
80
ENDCHAR
STARTCHAR question
ENCODING 63
SWIDTH 500 0
DWIDTH 7 0
BBX 5 9 1 0
BITMAP
70
88
88
10
20
20
00
20
20
ENDCHAR
STARTCHAR at
ENCODING 64
SWIDTH 500 0
DWIDTH 7 0
BBX 5 9 1 0
BITMAP
70
88
B8
A8
A8
A8
B8
80
78
ENDCHAR
STARTCHAR A
ENCODING 65
SWIDTH 500 0
DWIDTH 7 0
BBX 5 9 1 0
BITMAP
20
20
50
50
88
F8
88
88
88
ENDCHAR
STARTCHAR B
ENCODING 66
SWIDTH 500 0
DWIDTH 7 0
BBX 5 9 1 0
BITMAP
F0
88
88
88
F0
88
88
88
F0
ENDCHAR
STARTCHAR C
ENCODING 67
SWIDTH 500 0
DWIDTH 7 0
BBX 5 9 1 0
BITMAP
70
88
80
80
80
80
80
88
70
ENDCHAR
STARTCHAR D
ENCODING 68
SWIDTH 500 0
DWIDTH 7 0
BBX 5 9 1 0
BITMAP
E0
90
88
88
88
88
88
90
E0
ENDCHAR
STARTCHAR E
ENCODING 69
SWIDTH 500 0
DWIDTH 7 0
BBX 5 9 1 0
BITMAP
F8
80
80
80
F0
80
80
80
F8
ENDCHAR
STARTCHAR F
ENCODING 70
SWIDTH 500 0
DWIDTH 7 0
BBX 5 9 1 0
BITMAP
F8
80
80
80
F0
80
80
80
80
ENDCHAR
STARTCHAR G
ENCODING 71
SWIDTH 500 0
DWIDTH 7 0
BBX 5 9 1 0
BITMAP
70
88
80
80
98
88
88
98
68
ENDCHAR
STARTCHAR H
ENCODING 72
SWIDTH 500 0
DWIDTH 7 0
BBX 5 9 1 0
BITMAP
88
88
88
88
F8
88
88
88
88
ENDCHAR
STARTCHAR I
ENCODING 73
SWIDTH 500 0
DWIDTH 7 0
BBX 5 9 1 0
BITMAP
F8
20
20
20
20
20
20
20
F8
ENDCHAR
STARTCHAR J
ENCODING 74
SWIDTH 500 0
DWIDTH 7 0
BBX 6 9 1 0
BITMAP
3C
08
08
08
08
08
88
88
70
ENDCHAR
STARTCHAR K
ENCODING 75
SWIDTH 500 0
DWIDTH 7 0
BBX 5 9 1 0
BITMAP
88
88
90
A0
C0
A0
90
88
88
ENDCHAR
STARTCHAR L
ENCODING 76
SWIDTH 500 0
DWIDTH 7 0
BBX 5 9 1 0
BITMAP
80
80
80
80
80
80
80
80
F8
ENDCHAR
STARTCHAR M
ENCODING 77
SWIDTH 500 0
DWIDTH 7 0
BBX 5 9 1 0
BITMAP
88
88
D8
A8
A8
88
88
88
88
ENDCHAR
STARTCHAR N
ENCODING 78
SWIDTH 500 0
DWIDTH 7 0
BBX 5 9 1 0
BITMAP
88
88
C8
A8
A8
98
88
88
88
ENDCHAR
STARTCHAR O
ENCODING 79
SWIDTH 500 0
DWIDTH 7 0
BBX 5 9 1 0
BITMAP
70
88
88
88
88
88
88
88
70
ENDCHAR
STARTCHAR P
ENCODING 80
SWIDTH 500 0
DWIDTH 7 0
BBX 5 9 1 0
BITMAP
F0
88
88
88
F0
80
80
80
80
ENDCHAR
STARTCHAR Q
ENCODING 81
SWIDTH 500 0
DWIDTH 7 0
BBX 5 10 1 -1
BITMAP
70
88
88
88
88
88
A8
D8
70
08
ENDCHAR
STARTCHAR R
ENCODING 82
SWIDTH 500 0
DWIDTH 7 0
BBX 5 9 1 0
BITMAP
F0
88
88
88
F0
90
90
88
88
ENDCHAR
STARTCHAR S
ENCODING 83
SWIDTH 500 0
DWIDTH 7 0
BBX 5 9 1 0
BITMAP
70
88
80
80
70
08
08
88
70
ENDCHAR
STARTCHAR T
ENCODING 84
SWIDTH 500 0
DWIDTH 7 0
BBX 5 9 1 0
BITMAP
F8
20
20
20
20
20
20
20
20
ENDCHAR
STARTCHAR U
ENCODING 85
SWIDTH 500 0
DWIDTH 7 0
BBX 5 9 1 0
BITMAP
88
88
88
88
88
88
88
88
70
ENDCHAR
STARTCHAR V
ENCODING 86
SWIDTH 500 0
DWIDTH 7 0
BBX 5 9 1 0
BITMAP
88
88
88
88
88
50
50
20
20
ENDCHAR
STARTCHAR W
ENCODING 87
SWIDTH 500 0
DWIDTH 7 0
BBX 5 9 1 0
BITMAP
88
88
88
88
A8
A8
A8
50
50
ENDCHAR
STARTCHAR X
ENCODING 88
SWIDTH 500 0
DWIDTH 7 0
BBX 5 9 1 0
BITMAP
88
88
50
50
20
50
50
88
88
ENDCHAR
STARTCHAR Y
ENCODING 89
SWIDTH 500 0
DWIDTH 7 0
BBX 5 9 1 0
BITMAP
88
88
88
50
20
20
20
20
20
ENDCHAR
STARTCHAR Z
ENCODING 90
SWIDTH 500 0
DWIDTH 7 0
BBX 5 9 1 0
BITMAP
F8
08
10
10
20
40
40
80
F8
ENDCHAR
STARTCHAR bracketleft
ENCODING 91
SWIDTH 500 0
DWIDTH 7 0
BBX 3 11 2 -1
BITMAP
E0
80
80
80
80
80
80
80
80
80
E0
ENDCHAR
STARTCHAR backslash
ENCODING 92
SWIDTH 500 0
DWIDTH 7 0
BBX 5 10 1 0
BITMAP
80
80
40
40
20
20
10
10
08
08
ENDCHAR
STARTCHAR bracketright
ENCODING 93
SWIDTH 500 0
DWIDTH 7 0
BBX 3 11 2 -1
BITMAP
E0
20
20
20
20
20
20
20
20
20
E0
ENDCHAR
STARTCHAR asciicircum
ENCODING 94
SWIDTH 500 0
DWIDTH 7 0
BBX 5 3 1 7
BITMAP
20
50
88
ENDCHAR
STARTCHAR underscore
ENCODING 95
SWIDTH 500 0
DWIDTH 7 0
BBX 6 1 1 -1
BITMAP
FC
ENDCHAR
STARTCHAR grave
ENCODING 96
SWIDTH 500 0
DWIDTH 7 0
BBX 3 3 2 7
BITMAP
80
40
20
ENDCHAR
STARTCHAR a
ENCODING 97
SWIDTH 500 0
DWIDTH 7 0
BBX 5 7 1 0
BITMAP
70
08
08
78
88
88
78
ENDCHAR
STARTCHAR b
ENCODING 98
SWIDTH 500 0
DWIDTH 7 0
BBX 5 10 1 0
BITMAP
80
80
80
F0
88
88
88
88
88
F0
ENDCHAR
STARTCHAR c
ENCODING 99
SWIDTH 500 0
DWIDTH 7 0
BBX 5 7 1 0
BITMAP
70
88
80
80
80
88
70
ENDCHAR
STARTCHAR d
ENCODING 100
SWIDTH 500 0
DWIDTH 7 0
BBX 5 10 1 0
BITMAP
08
08
08
78
88
88
88
88
88
78
ENDCHAR
STARTCHAR e
ENCODING 101
SWIDTH 500 0
DWIDTH 7 0
BBX 5 7 1 0
BITMAP
70
88
88
F8
80
88
70
ENDCHAR
STARTCHAR f
ENCODING 102
SWIDTH 500 0
DWIDTH 7 0
BBX 5 10 1 0
BITMAP
38
40
40
F0
40
40
40
40
40
40
ENDCHAR
STARTCHAR g
ENCODING 103
SWIDTH 500 0
DWIDTH 7 0
BBX 5 10 1 -3
BITMAP
78
88
88
88
88
88
78
08
08
70
ENDCHAR
STARTCHAR h
ENCODING 104
SWIDTH 500 0
DWIDTH 7 0
BBX 5 10 1 0
BITMAP
80
80
80
F0
88
88
88
88
88
88
ENDCHAR
STARTCHAR i
ENCODING 105
SWIDTH 500 0
DWIDTH 7 0
BBX 3 10 2 0
BITMAP
40
40
00
C0
40
40
40
40
40
60
ENDCHAR
STARTCHAR j
ENCODING 106
SWIDTH 500 0
DWIDTH 7 0
BBX 4 12 1 -2
BITMAP
10
10
00
30
10
10
10
10
10
10
10
E0
ENDCHAR
STARTCHAR k
ENCODING 107
SWIDTH 500 0
DWIDTH 7 0
BBX 5 10 1 0
BITMAP
80
80
80
88
90
A0
C0
A0
90
88
ENDCHAR
STARTCHAR l
ENCODING 108
SWIDTH 500 0
DWIDTH 7 0
BBX 3 10 2 0
BITMAP
C0
40
40
40
40
40
40
40
40
60
ENDCHAR
STARTCHAR m
ENCODING 109
SWIDTH 500 0
DWIDTH 7 0
BBX 5 7 1 0
BITMAP
D0
A8
A8
A8
A8
A8
A8
ENDCHAR
STARTCHAR n
ENCODING 110
SWIDTH 500 0
DWIDTH 7 0
BBX 5 7 1 0
BITMAP
F0
88
88
88
88
88
88
ENDCHAR
STARTCHAR o
ENCODING 111
SWIDTH 500 0
DWIDTH 7 0
BBX 5 7 1 0
BITMAP
70
88
88
88
88
88
70
ENDCHAR
STARTCHAR p
ENCODING 112
SWIDTH 500 0
DWIDTH 7 0
BBX 5 10 1 -3
BITMAP
F0
88
88
88
88
88
F0
80
80
80
ENDCHAR
STARTCHAR q
ENCODING 113
SWIDTH 500 0
DWIDTH 7 0
BBX 5 10 1 -3
BITMAP
78
88
88
88
88
88
78
08
08
08
ENDCHAR
STARTCHAR r
ENCODING 114
SWIDTH 500 0
DWIDTH 7 0
BBX 5 7 1 0
BITMAP
B0
C8
88
80
80
80
80
ENDCHAR
STARTCHAR s
ENCODING 115
SWIDTH 500 0
DWIDTH 7 0
BBX 5 7 1 0
BITMAP
70
88
80
70
08
88
70
ENDCHAR
STARTCHAR t
ENCODING 116
SWIDTH 500 0
DWIDTH 7 0
BBX 5 10 1 0
BITMAP
40
40
40
F0
40
40
40
40
40
38
ENDCHAR
STARTCHAR u
ENCODING 117
SWIDTH 500 0
DWIDTH 7 0
BBX 5 7 1 0
BITMAP
88
88
88
88
88
88
78
ENDCHAR
STARTCHAR v
ENCODING 118
SWIDTH 500 0
DWIDTH 7 0
BBX 5 7 1 0
BITMAP
88
88
88
50
50
20
20
ENDCHAR
STARTCHAR w
ENCODING 119
SWIDTH 500 0
DWIDTH 7 0
BBX 5 7 1 0
BITMAP
88
88
88
A8
A8
50
50
ENDCHAR
STARTCHAR x
ENCODING 120
SWIDTH 500 0
DWIDTH 7 0
BBX 5 7 1 0
BITMAP
88
88
50
20
50
88
88
ENDCHAR
STARTCHAR y
ENCODING 121
SWIDTH 500 0
DWIDTH 7 0
BBX 5 10 1 -3
BITMAP
88
88
88
88
88
88
78
08
08
70
ENDCHAR
STARTCHAR z
ENCODING 122
SWIDTH 500 0
DWIDTH 7 0
BBX 5 7 1 0
BITMAP
F8
08
10
20
40
80
F8
ENDCHAR
STARTCHAR braceleft
ENCODING 123
SWIDTH 500 0
DWIDTH 7 0
BBX 4 11 2 -1
BITMAP
30
40
40
20
20
C0
20
20
40
40
30
ENDCHAR
STARTCHAR bar
ENCODING 124
SWIDTH 500 0
DWIDTH 7 0
BBX 1 12 3 -1
BITMAP
80
80
80
80
80
80
80
80
80
80
80
80
ENDCHAR
STARTCHAR braceright
ENCODING 125
SWIDTH 500 0
DWIDTH 7 0
BBX 4 11 1 -1
BITMAP
C0
20
20
40
40
30
40
40
20
20
C0
ENDCHAR
STARTCHAR asciitilde
ENCODING 126
SWIDTH 500 0
DWIDTH 7 0
BBX 6 2 1 4
BITMAP
64
98
ENDCHAR
STARTCHAR uni00A0
ENCODING 160
SWIDTH 466 0
DWIDTH 7 0
BBX 1 1 8 -3
BITMAP
00
ENDCHAR
STARTCHAR exclamdown
ENCODING 161
SWIDTH 466 0
DWIDTH 7 0
BBX 1 9 3 -2
BITMAP
80
80
00
80
80
80
80
80
80
ENDCHAR
STARTCHAR cent
ENCODING 162
SWIDTH 466 0
DWIDTH 7 0
BBX 5 9 1 -1
BITMAP
20
70
A8
A0
A0
A0
A8
70
20
ENDCHAR
STARTCHAR sterling
ENCODING 163
SWIDTH 466 0
DWIDTH 7 0
BBX 5 9 1 0
BITMAP
30
48
40
40
F0
40
40
80
F8
ENDCHAR
STARTCHAR currency
ENCODING 164
SWIDTH 466 0
DWIDTH 7 0
BBX 6 6 1 1
BITMAP
B4
48
84
84
48
B4
ENDCHAR
STARTCHAR yen
ENCODING 165
SWIDTH 466 0
DWIDTH 7 0
BBX 5 9 1 0
BITMAP
88
88
88
50
F8
20
F8
20
20
ENDCHAR
STARTCHAR brokenbar
ENCODING 166
SWIDTH 466 0
DWIDTH 7 0
BBX 1 11 3 -1
BITMAP
80
80
80
80
80
00
80
80
80
80
80
ENDCHAR
STARTCHAR section
ENCODING 167
SWIDTH 466 0
DWIDTH 7 0
BBX 5 11 1 -2
BITMAP
70
88
80
60
90
88
48
30
08
88
70
ENDCHAR
STARTCHAR dieresis
ENCODING 168
SWIDTH 466 0
DWIDTH 7 0
BBX 3 1 2 10
BITMAP
A0
ENDCHAR
STARTCHAR copyright
ENCODING 169
SWIDTH 466 0
DWIDTH 7 0
BBX 7 9 0 0
BITMAP
38
44
92
AA
A2
AA
92
44
38
ENDCHAR
STARTCHAR ordfeminine
ENCODING 170
SWIDTH 466 0
DWIDTH 7 0
BBX 4 7 2 2
BITMAP
60
10
70
90
70
00
F0
ENDCHAR
STARTCHAR guillemotleft
ENCODING 171
SWIDTH 500 0
DWIDTH 7 0
BBX 5 5 1 1
BITMAP
28
50
A0
50
28
ENDCHAR
STARTCHAR logicalnot
ENCODING 172
SWIDTH 466 0
DWIDTH 7 0
BBX 5 3 1 2
BITMAP
F8
08
08
ENDCHAR
STARTCHAR uni00AD
ENCODING 173
SWIDTH 466 0
DWIDTH 7 0
BBX 4 1 2 4
BITMAP
F0
ENDCHAR
STARTCHAR registered
ENCODING 174
SWIDTH 466 0
DWIDTH 7 0
BBX 7 9 0 0
BITMAP
38
44
B2
AA
B2
AA
AA
44
38
ENDCHAR
STARTCHAR macron
ENCODING 175
SWIDTH 466 0
DWIDTH 7 0
BBX 3 1 2 10
BITMAP
E0
ENDCHAR
STARTCHAR degree
ENCODING 176
SWIDTH 466 0
DWIDTH 7 0
BBX 4 4 2 6
BITMAP
60
90
90
60
ENDCHAR
STARTCHAR plusminus
ENCODING 177
SWIDTH 466 0
DWIDTH 7 0
BBX 5 7 1 0
BITMAP
20
20
F8
20
20
00
F8
ENDCHAR
STARTCHAR uni00B2
ENCODING 178
SWIDTH 466 0
DWIDTH 7 0
BBX 4 5 2 5
BITMAP
60
90
20
40
F0
ENDCHAR
STARTCHAR uni00B3
ENCODING 179
SWIDTH 466 0
DWIDTH 7 0
BBX 4 5 2 5
BITMAP
E0
10
60
10
E0
ENDCHAR
STARTCHAR acute
ENCODING 180
SWIDTH 466 0
DWIDTH 7 0
BBX 2 2 3 10
BITMAP
40
80
ENDCHAR
STARTCHAR mu
ENCODING 181
SWIDTH 466 0
DWIDTH 7 0
BBX 6 10 1 -3
BITMAP
88
88
88
88
88
88
F4
80
80
80
ENDCHAR
STARTCHAR paragraph
ENCODING 182
SWIDTH 466 0
DWIDTH 7 0
BBX 5 11 1 -2
BITMAP
78
E8
E8
E8
68
28
28
28
28
28
28
ENDCHAR
STARTCHAR periodcentered
ENCODING 183
SWIDTH 466 0
DWIDTH 7 0
BBX 1 2 3 3
BITMAP
80
80
ENDCHAR
STARTCHAR cedilla
ENCODING 184
SWIDTH 466 0
DWIDTH 7 0
BBX 3 3 2 -3
BITMAP
40
20
C0
ENDCHAR
STARTCHAR uni00B9
ENCODING 185
SWIDTH 466 0
DWIDTH 7 0
BBX 3 5 2 5
BITMAP
40
C0
40
40
E0
ENDCHAR
STARTCHAR ordmasculine
ENCODING 186
SWIDTH 466 0
DWIDTH 7 0
BBX 4 7 2 2
BITMAP
60
90
90
90
60
00
F0
ENDCHAR
STARTCHAR guillemotright
ENCODING 187
SWIDTH 500 0
DWIDTH 7 0
BBX 5 5 1 1
BITMAP
A0
50
28
50
A0
ENDCHAR
STARTCHAR onequarter
ENCODING 188
SWIDTH 466 0
DWIDTH 7 0
BBX 6 10 1 0
BITMAP
40
C0
40
48
F0
28
58
A8
3C
08
ENDCHAR
STARTCHAR onehalf
ENCODING 189
SWIDTH 466 0
DWIDTH 7 0
BBX 6 10 1 0
BITMAP
40
C0
40
48
F0
28
54
88
10
1C
ENDCHAR
STARTCHAR threequarters
ENCODING 190
SWIDTH 466 0
DWIDTH 7 0
BBX 6 10 1 0
BITMAP
C0
20
40
28
D0
28
58
A8
3C
08
ENDCHAR
STARTCHAR questiondown
ENCODING 191
SWIDTH 466 0
DWIDTH 7 0
BBX 5 9 1 -2
BITMAP
20
20
00
20
20
40
88
88
70
ENDCHAR
STARTCHAR Agrave
ENCODING 192
SWIDTH 500 0
DWIDTH 7 0
BBX 5 12 1 0
BITMAP
40
20
00
20
20
50
50
88
F8
88
88
88
ENDCHAR
STARTCHAR Aacute
ENCODING 193
SWIDTH 500 0
DWIDTH 7 0
BBX 5 12 1 0
BITMAP
10
20
00
20
20
50
50
88
F8
88
88
88
ENDCHAR
STARTCHAR Acircumflex
ENCODING 194
SWIDTH 500 0
DWIDTH 7 0
BBX 5 12 1 0
BITMAP
20
50
00
20
20
50
50
88
F8
88
88
88
ENDCHAR
STARTCHAR Atilde
ENCODING 195
SWIDTH 500 0
DWIDTH 7 0
BBX 5 12 1 0
BITMAP
28
50
00
20
20
50
50
88
F8
88
88
88
ENDCHAR
STARTCHAR Adieresis
ENCODING 196
SWIDTH 500 0
DWIDTH 7 0
BBX 5 11 1 0
BITMAP
50
00
20
20
50
50
88
F8
88
88
88
ENDCHAR
STARTCHAR Aring
ENCODING 197
SWIDTH 500 0
DWIDTH 7 0
BBX 5 11 1 0
BITMAP
20
50
20
20
50
50
88
F8
88
88
88
ENDCHAR
STARTCHAR AE
ENCODING 198
SWIDTH 466 0
DWIDTH 7 0
BBX 5 9 1 0
BITMAP
38
60
60
A0
B8
E0
A0
A0
B8
ENDCHAR
STARTCHAR Ccedilla
ENCODING 199
SWIDTH 500 0
DWIDTH 7 0
BBX 5 12 1 -3
BITMAP
70
88
80
80
80
80
80
88
70
20
10
60
ENDCHAR
STARTCHAR Egrave
ENCODING 200
SWIDTH 466 0
DWIDTH 7 0
BBX 5 12 1 0
BITMAP
40
20
00
F8
80
80
80
F0
80
80
80
F8
ENDCHAR
STARTCHAR Eacute
ENCODING 201
SWIDTH 466 0
DWIDTH 7 0
BBX 5 12 1 0
BITMAP
10
20
00
F8
80
80
80
F0
80
80
80
F8
ENDCHAR
STARTCHAR Ecircumflex
ENCODING 202
SWIDTH 466 0
DWIDTH 7 0
BBX 5 12 1 0
BITMAP
20
50
00
F8
80
80
80
F0
80
80
80
F8
ENDCHAR
STARTCHAR Edieresis
ENCODING 203
SWIDTH 466 0
DWIDTH 7 0
BBX 5 11 1 0
BITMAP
50
00
F8
80
80
80
F0
80
80
80
F8
ENDCHAR
STARTCHAR Igrave
ENCODING 204
SWIDTH 500 0
DWIDTH 7 0
BBX 5 12 1 0
BITMAP
40
20
00
F8
20
20
20
20
20
20
20
F8
ENDCHAR
STARTCHAR Iacute
ENCODING 205
SWIDTH 500 0
DWIDTH 7 0
BBX 5 12 1 0
BITMAP
10
20
00
F8
20
20
20
20
20
20
20
F8
ENDCHAR
STARTCHAR Icircumflex
ENCODING 206
SWIDTH 500 0
DWIDTH 7 0
BBX 5 12 1 0
BITMAP
20
50
00
F8
20
20
20
20
20
20
20
F8
ENDCHAR
STARTCHAR Idieresis
ENCODING 207
SWIDTH 500 0
DWIDTH 7 0
BBX 5 11 1 0
BITMAP
50
00
F8
20
20
20
20
20
20
20
F8
ENDCHAR
STARTCHAR Eth
ENCODING 208
SWIDTH 500 0
DWIDTH 7 0
BBX 6 9 1 0
BITMAP
70
48
44
44
F4
44
44
48
70
ENDCHAR
STARTCHAR Ntilde
ENCODING 209
SWIDTH 500 0
DWIDTH 7 0
BBX 5 12 1 0
BITMAP
28
50
00
88
88
C8
A8
A8
98
88
88
88
ENDCHAR
STARTCHAR Ograve
ENCODING 210
SWIDTH 500 0
DWIDTH 7 0
BBX 5 12 1 0
BITMAP
40
20
00
70
88
88
88
88
88
88
88
70
ENDCHAR
STARTCHAR Oacute
ENCODING 211
SWIDTH 500 0
DWIDTH 7 0
BBX 5 12 1 0
BITMAP
10
20
00
70
88
88
88
88
88
88
88
70
ENDCHAR
STARTCHAR Ocircumflex
ENCODING 212
SWIDTH 500 0
DWIDTH 7 0
BBX 5 12 1 0
BITMAP
20
50
00
70
88
88
88
88
88
88
88
70
ENDCHAR
STARTCHAR Otilde
ENCODING 213
SWIDTH 500 0
DWIDTH 7 0
BBX 5 12 1 0
BITMAP
28
50
00
70
88
88
88
88
88
88
88
70
ENDCHAR
STARTCHAR Odieresis
ENCODING 214
SWIDTH 500 0
DWIDTH 7 0
BBX 5 11 1 0
BITMAP
50
00
70
88
88
88
88
88
88
88
70
ENDCHAR
STARTCHAR multiply
ENCODING 215
SWIDTH 466 0
DWIDTH 7 0
BBX 5 5 1 2
BITMAP
88
50
20
50
88
ENDCHAR
STARTCHAR Oslash
ENCODING 216
SWIDTH 466 0
DWIDTH 7 0
BBX 5 11 1 -1
BITMAP
08
68
90
98
A8
A8
A8
C8
48
B0
80
ENDCHAR
STARTCHAR Ugrave
ENCODING 217
SWIDTH 500 0
DWIDTH 7 0
BBX 5 12 1 0
BITMAP
40
20
00
88
88
88
88
88
88
88
88
70
ENDCHAR
STARTCHAR Uacute
ENCODING 218
SWIDTH 500 0
DWIDTH 7 0
BBX 5 12 1 0
BITMAP
10
20
00
88
88
88
88
88
88
88
88
70
ENDCHAR
STARTCHAR Ucircumflex
ENCODING 219
SWIDTH 500 0
DWIDTH 7 0
BBX 5 12 1 0
BITMAP
20
50
00
88
88
88
88
88
88
88
88
70
ENDCHAR
STARTCHAR Udieresis
ENCODING 220
SWIDTH 500 0
DWIDTH 7 0
BBX 5 11 1 0
BITMAP
50
00
88
88
88
88
88
88
88
88
70
ENDCHAR
STARTCHAR Yacute
ENCODING 221
SWIDTH 500 0
DWIDTH 7 0
BBX 5 9 1 0
BITMAP
88
88
88
50
20
20
20
20
20
ENDCHAR
STARTCHAR Thorn
ENCODING 222
SWIDTH 466 0
DWIDTH 7 0
BBX 5 9 1 0
BITMAP
80
80
F0
88
88
88
F0
80
80
ENDCHAR
STARTCHAR germandbls
ENCODING 223
SWIDTH 466 0
DWIDTH 7 0
BBX 5 9 1 0
BITMAP
60
90
90
A0
A0
90
88
88
B0
ENDCHAR
STARTCHAR agrave
ENCODING 224
SWIDTH 500 0
DWIDTH 7 0
BBX 5 10 1 0
BITMAP
40
20
00
70
08
08
78
88
88
78
ENDCHAR
STARTCHAR aacute
ENCODING 225
SWIDTH 500 0
DWIDTH 7 0
BBX 5 10 1 0
BITMAP
10
20
00
70
08
08
78
88
88
78
ENDCHAR
STARTCHAR acircumflex
ENCODING 226
SWIDTH 500 0
DWIDTH 7 0
BBX 5 10 1 0
BITMAP
20
50
00
70
08
08
78
88
88
78
ENDCHAR
STARTCHAR atilde
ENCODING 227
SWIDTH 500 0
DWIDTH 7 0
BBX 5 10 1 0
BITMAP
28
50
00
70
08
08
78
88
88
78
ENDCHAR
STARTCHAR adieresis
ENCODING 228
SWIDTH 500 0
DWIDTH 7 0
BBX 5 9 1 0
BITMAP
50
00
70
08
08
78
88
88
78
ENDCHAR
STARTCHAR aring
ENCODING 229
SWIDTH 500 0
DWIDTH 7 0
BBX 5 10 1 0
BITMAP
20
50
20
70
08
08
78
88
88
78
ENDCHAR
STARTCHAR ae
ENCODING 230
SWIDTH -2133 0
DWIDTH 7 0
BBX 5 7 1 0
BITMAP
70
A8
28
78
A0
A8
50
ENDCHAR
STARTCHAR ccedilla
ENCODING 231
SWIDTH 466 0
DWIDTH 7 0
BBX 5 10 1 -3
BITMAP
70
88
80
80
80
88
70
20
10
60
ENDCHAR
STARTCHAR egrave
ENCODING 232
SWIDTH 500 0
DWIDTH 7 0
BBX 5 10 1 0
BITMAP
40
20
00
70
88
88
F8
80
88
70
ENDCHAR
STARTCHAR eacute
ENCODING 233
SWIDTH 500 0
DWIDTH 7 0
BBX 5 10 1 0
BITMAP
10
20
00
70
88
88
F8
80
88
70
ENDCHAR
STARTCHAR ecircumflex
ENCODING 234
SWIDTH 500 0
DWIDTH 7 0
BBX 5 10 1 0
BITMAP
20
50
00
70
88
88
F8
80
88
70
ENDCHAR
STARTCHAR edieresis
ENCODING 235
SWIDTH 500 0
DWIDTH 7 0
BBX 5 9 1 0
BITMAP
50
00
70
88
88
F8
80
88
70
ENDCHAR
STARTCHAR igrave
ENCODING 236
SWIDTH 1000 0
DWIDTH 7 0
BBX 3 10 2 0
BITMAP
80
40
00
C0
40
40
40
40
40
60
ENDCHAR
STARTCHAR iacute
ENCODING 237
SWIDTH 1000 0
DWIDTH 7 0
BBX 3 10 2 0
BITMAP
20
40
00
C0
40
40
40
40
40
60
ENDCHAR
STARTCHAR icircumflex
ENCODING 238
SWIDTH 1000 0
DWIDTH 7 0
BBX 3 10 2 0
BITMAP
40
A0
00
C0
40
40
40
40
40
60
ENDCHAR
STARTCHAR idieresis
ENCODING 239
SWIDTH 1000 0
DWIDTH 7 0
BBX 3 9 2 0
BITMAP
A0
00
C0
40
40
40
40
40
60
ENDCHAR
STARTCHAR eth
ENCODING 240
SWIDTH 466 0
DWIDTH 7 0
BBX 5 10 1 0
BITMAP
48
30
50
08
78
88
88
88
88
70
ENDCHAR
STARTCHAR ntilde
ENCODING 241
SWIDTH 500 0
DWIDTH 7 0
BBX 5 10 1 0
BITMAP
28
50
00
F0
88
88
88
88
88
88
ENDCHAR
STARTCHAR ograve
ENCODING 242
SWIDTH 500 0
DWIDTH 7 0
BBX 5 10 1 0
BITMAP
40
20
00
70
88
88
88
88
88
70
ENDCHAR
STARTCHAR oacute
ENCODING 243
SWIDTH 500 0
DWIDTH 7 0
BBX 5 10 1 0
BITMAP
10
20
00
70
88
88
88
88
88
70
ENDCHAR
STARTCHAR ocircumflex
ENCODING 244
SWIDTH 500 0
DWIDTH 7 0
BBX 5 10 1 0
BITMAP
20
50
00
70
88
88
88
88
88
70
ENDCHAR
STARTCHAR otilde
ENCODING 245
SWIDTH 500 0
DWIDTH 7 0
BBX 5 10 1 0
BITMAP
28
50
00
70
88
88
88
88
88
70
ENDCHAR
STARTCHAR odieresis
ENCODING 246
SWIDTH 500 0
DWIDTH 7 0
BBX 5 9 1 0
BITMAP
50
00
70
88
88
88
88
88
70
ENDCHAR
STARTCHAR divide
ENCODING 247
SWIDTH 466 0
DWIDTH 7 0
BBX 5 5 1 2
BITMAP
20
00
F8
00
20
ENDCHAR
STARTCHAR oslash
ENCODING 248
SWIDTH 466 0
DWIDTH 7 0
BBX 5 9 1 -1
BITMAP
08
70
98
A8
A8
A8
C8
70
80
ENDCHAR
STARTCHAR ugrave
ENCODING 249
SWIDTH 500 0
DWIDTH 7 0
BBX 5 10 1 0
BITMAP
40
20
00
88
88
88
88
88
88
78
ENDCHAR
STARTCHAR uacute
ENCODING 250
SWIDTH 500 0
DWIDTH 7 0
BBX 5 10 1 0
BITMAP
10
20
00
88
88
88
88
88
88
78
ENDCHAR
STARTCHAR ucircumflex
ENCODING 251
SWIDTH 500 0
DWIDTH 7 0
BBX 5 10 1 0
BITMAP
20
50
00
88
88
88
88
88
88
78
ENDCHAR
STARTCHAR udieresis
ENCODING 252
SWIDTH 500 0
DWIDTH 7 0
BBX 5 9 1 0
BITMAP
50
00
88
88
88
88
88
88
78
ENDCHAR
STARTCHAR yacute
ENCODING 253
SWIDTH 500 0
DWIDTH 7 0
BBX 5 13 1 -3
BITMAP
10
20
00
88
88
88
88
88
88
78
08
08
70
ENDCHAR
STARTCHAR thorn
ENCODING 254
SWIDTH 466 0
DWIDTH 7 0
BBX 5 13 1 -3
BITMAP
80
80
80
F0
88
88
88
88
88
F0
80
80
80
ENDCHAR
STARTCHAR ydieresis
ENCODING 255
SWIDTH 500 0
DWIDTH 7 0
BBX 5 12 1 -3
BITMAP
50
00
88
88
88
88
88
88
78
08
08
70
ENDCHAR
STARTCHAR dotlessi
ENCODING 305
SWIDTH 466 0
DWIDTH 7 0
BBX 3 7 2 0
BITMAP
C0
40
40
40
40
40
60
ENDCHAR
STARTCHAR gravecomb
ENCODING 768
SWIDTH 0 0
DWIDTH 0 0
BBX 2 2 -5 10
BITMAP
80
40
ENDCHAR
STARTCHAR acutecomb
ENCODING 769
SWIDTH 0 0
DWIDTH 0 0
BBX 2 2 -4 10
BITMAP
40
80
ENDCHAR
STARTCHAR uni0302
ENCODING 770
SWIDTH 0 0
DWIDTH 0 0
BBX 3 2 -5 10
BITMAP
40
A0
ENDCHAR
STARTCHAR tildecomb
ENCODING 771
SWIDTH 0 0
DWIDTH 0 0
BBX 4 2 -5 10
BITMAP
50
A0
ENDCHAR
STARTCHAR uni0308
ENCODING 776
SWIDTH 0 0
DWIDTH 0 0
BBX 3 1 -5 10
BITMAP
A0
ENDCHAR
STARTCHAR uni030A
ENCODING 778
SWIDTH 0 0
DWIDTH 0 0
BBX 3 3 -5 9
BITMAP
40
A0
40
ENDCHAR
STARTCHAR uni0327
ENCODING 807
SWIDTH 0 0
DWIDTH 0 0
BBX 3 3 -5 -3
BITMAP
40
20
C0
ENDCHAR
STARTCHAR Alpha
ENCODING 913
SWIDTH 500 0
DWIDTH 7 0
BBX 5 9 1 0
BITMAP
20
20
50
50
88
F8
88
88
88
ENDCHAR
STARTCHAR Beta
ENCODING 914
SWIDTH 500 0
DWIDTH 7 0
BBX 5 9 1 0
BITMAP
F0
88
88
88
F0
88
88
88
F0
ENDCHAR
STARTCHAR Gamma
ENCODING 915
SWIDTH 466 0
DWIDTH 7 0
BBX 5 9 1 0
BITMAP
F8
80
80
80
80
80
80
80
80
ENDCHAR
STARTCHAR uni0394
ENCODING 916
SWIDTH 466 0
DWIDTH 7 0
BBX 5 9 1 0
BITMAP
20
20
20
50
50
50
88
88
F8
ENDCHAR
STARTCHAR Epsilon
ENCODING 917
SWIDTH 500 0
DWIDTH 7 0
BBX 5 9 1 0
BITMAP
F8
80
80
80
F0
80
80
80
F8
ENDCHAR
STARTCHAR Zeta
ENCODING 918
SWIDTH 500 0
DWIDTH 7 0
BBX 5 9 1 0
BITMAP
F8
08
10
10
20
40
40
80
F8
ENDCHAR
STARTCHAR Eta
ENCODING 919
SWIDTH 500 0
DWIDTH 7 0
BBX 5 9 1 0
BITMAP
88
88
88
88
F8
88
88
88
88
ENDCHAR
STARTCHAR Theta
ENCODING 920
SWIDTH 500 0
DWIDTH 7 0
BBX 6 9 1 0
BITMAP
78
84
84
84
B4
84
84
84
78
ENDCHAR
STARTCHAR Iota
ENCODING 921
SWIDTH 500 0
DWIDTH 7 0
BBX 5 9 1 0
BITMAP
F8
20
20
20
20
20
20
20
F8
ENDCHAR
STARTCHAR Kappa
ENCODING 922
SWIDTH 500 0
DWIDTH 7 0
BBX 5 9 1 0
BITMAP
88
88
90
A0
C0
A0
90
88
88
ENDCHAR
STARTCHAR Lambda
ENCODING 923
SWIDTH 466 0
DWIDTH 7 0
BBX 5 9 1 0
BITMAP
20
20
20
50
50
50
88
88
88
ENDCHAR
STARTCHAR Mu
ENCODING 924
SWIDTH 500 0
DWIDTH 7 0
BBX 5 9 1 0
BITMAP
88
88
D8
A8
A8
88
88
88
88
ENDCHAR
STARTCHAR Nu
ENCODING 925
SWIDTH 500 0
DWIDTH 7 0
BBX 5 9 1 0
BITMAP
88
88
C8
A8
A8
98
88
88
88
ENDCHAR
STARTCHAR Xi
ENCODING 926
SWIDTH 466 0
DWIDTH 7 0
BBX 5 9 1 0
BITMAP
F8
00
00
00
70
00
00
00
F8
ENDCHAR
STARTCHAR Omicron
ENCODING 927
SWIDTH 500 0
DWIDTH 7 0
BBX 5 9 1 0
BITMAP
70
88
88
88
88
88
88
88
70
ENDCHAR
STARTCHAR Pi
ENCODING 928
SWIDTH 466 0
DWIDTH 7 0
BBX 5 9 1 0
BITMAP
F8
88
88
88
88
88
88
88
88
ENDCHAR
STARTCHAR Rho
ENCODING 929
SWIDTH 500 0
DWIDTH 7 0
BBX 5 9 1 0
BITMAP
F0
88
88
88
F0
80
80
80
80
ENDCHAR
STARTCHAR Sigma
ENCODING 931
SWIDTH 466 0
DWIDTH 7 0
BBX 5 9 1 0
BITMAP
F8
80
40
20
10
20
40
80
F8
ENDCHAR
STARTCHAR Tau
ENCODING 932
SWIDTH 500 0
DWIDTH 7 0
BBX 5 9 1 0
BITMAP
F8
20
20
20
20
20
20
20
20
ENDCHAR
STARTCHAR Upsilon
ENCODING 933
SWIDTH 500 0
DWIDTH 7 0
BBX 5 9 1 0
BITMAP
88
88
88
50
20
20
20
20
20
ENDCHAR
STARTCHAR Phi
ENCODING 934
SWIDTH 466 0
DWIDTH 7 0
BBX 5 9 1 0
BITMAP
70
20
70
A8
A8
A8
70
20
70
ENDCHAR
STARTCHAR Chi
ENCODING 935
SWIDTH 500 0
DWIDTH 7 0
BBX 5 9 1 0
BITMAP
88
88
50
50
20
50
50
88
88
ENDCHAR
STARTCHAR Psi
ENCODING 936
SWIDTH 466 0
DWIDTH 7 0
BBX 5 9 1 0
BITMAP
A8
A8
A8
A8
A8
70
20
20
70
ENDCHAR
STARTCHAR uni03A9
ENCODING 937
SWIDTH 466 0
DWIDTH 7 0
BBX 6 9 1 0
BITMAP
78
84
84
84
84
84
48
48
CC
ENDCHAR
STARTCHAR alpha
ENCODING 945
SWIDTH 466 0
DWIDTH 7 0
BBX 5 7 1 0
BITMAP
68
90
90
90
90
90
68
ENDCHAR
STARTCHAR beta
ENCODING 946
SWIDTH 466 0
DWIDTH 7 0
BBX 5 12 1 -3
BITMAP
60
90
90
90
B0
88
88
88
F0
80
80
80
ENDCHAR
STARTCHAR gamma
ENCODING 947
SWIDTH 466 0
DWIDTH 7 0
BBX 6 10 1 -3
BITMAP
84
44
48
48
50
30
20
20
40
40
ENDCHAR
STARTCHAR delta
ENCODING 948
SWIDTH 466 0
DWIDTH 7 0
BBX 5 10 1 0
BITMAP
30
48
40
20
70
88
88
88
88
70
ENDCHAR
STARTCHAR epsilon
ENCODING 949
SWIDTH 466 0
DWIDTH 7 0
BBX 5 7 1 0
BITMAP
70
88
80
60
80
88
70
ENDCHAR
STARTCHAR zeta
ENCODING 950
SWIDTH 466 0
DWIDTH 7 0
BBX 5 13 1 -3
BITMAP
78
08
10
20
40
40
80
80
80
70
08
08
10
ENDCHAR
STARTCHAR eta
ENCODING 951
SWIDTH 466 0
DWIDTH 7 0
BBX 5 10 1 -3
BITMAP
F0
88
88
88
88
88
88
08
08
08
ENDCHAR
STARTCHAR theta
ENCODING 952
SWIDTH 466 0
DWIDTH 7 0
BBX 5 9 1 0
BITMAP
70
88
88
88
F8
88
88
88
70
ENDCHAR
STARTCHAR iota
ENCODING 953
SWIDTH 466 0
DWIDTH 7 0
BBX 4 7 2 0
BITMAP
C0
40
40
40
40
50
20
ENDCHAR
STARTCHAR kappa
ENCODING 954
SWIDTH 500 0
DWIDTH 7 0
BBX 5 7 1 0
BITMAP
88
90
A0
C0
A0
90
88
ENDCHAR
STARTCHAR lambda
ENCODING 955
SWIDTH 466 0
DWIDTH 7 0
BBX 6 9 1 0
BITMAP
C0
20
20
10
30
30
48
48
84
ENDCHAR
STARTCHAR uni03BC
ENCODING 956
SWIDTH 466 0
DWIDTH 7 0
BBX 6 10 1 -3
BITMAP
88
88
88
88
88
88
F4
80
80
80
ENDCHAR
STARTCHAR nu
ENCODING 957
SWIDTH 466 0
DWIDTH 7 0
BBX 5 7 1 0
BITMAP
90
88
88
48
50
20
20
ENDCHAR
STARTCHAR xi
ENCODING 958
SWIDTH 466 0
DWIDTH 7 0
BBX 5 13 1 -3
BITMAP
78
10
20
40
40
30
40
80
80
70
08
08
10
ENDCHAR
STARTCHAR omicron
ENCODING 959
SWIDTH 500 0
DWIDTH 7 0
BBX 5 7 1 0
BITMAP
70
88
88
88
88
88
70
ENDCHAR
STARTCHAR pi
ENCODING 960
SWIDTH 466 0
DWIDTH 7 0
BBX 5 7 1 0
BITMAP
F8
50
50
50
50
50
48
ENDCHAR
STARTCHAR rho
ENCODING 961
SWIDTH 466 0
DWIDTH 7 0
BBX 5 10 1 -3
BITMAP
70
88
88
88
88
88
F0
80
80
80
ENDCHAR
STARTCHAR sigma1
ENCODING 962
SWIDTH 466 0
DWIDTH 7 0
BBX 5 10 1 -3
BITMAP
70
88
80
80
80
80
70
08
08
10
ENDCHAR
STARTCHAR sigma
ENCODING 963
SWIDTH 500 0
DWIDTH 7 0
BBX 5 7 1 0
BITMAP
78
90
90
90
90
90
60
ENDCHAR
STARTCHAR tau
ENCODING 964
SWIDTH 466 0
DWIDTH 7 0
BBX 5 7 1 0
BITMAP
F8
20
20
20
20
20
18
ENDCHAR
STARTCHAR upsilon
ENCODING 965
SWIDTH 466 0
DWIDTH 7 0
BBX 5 7 1 0
BITMAP
90
88
88
88
88
90
60
ENDCHAR
STARTCHAR phi
ENCODING 966
SWIDTH 466 0
DWIDTH 7 0
BBX 5 10 1 -3
BITMAP
90
A8
A8
A8
A8
A8
70
20
20
20
ENDCHAR
STARTCHAR chi
ENCODING 967
SWIDTH 466 0
DWIDTH 7 0
BBX 5 10 1 -3
BITMAP
88
48
50
50
20
20
50
50
90
88
ENDCHAR
STARTCHAR psi
ENCODING 968
SWIDTH 466 0
DWIDTH 7 0
BBX 5 10 1 -3
BITMAP
A8
A8
A8
A8
A8
A8
70
20
20
20
ENDCHAR
STARTCHAR omega
ENCODING 969
SWIDTH 466 0
DWIDTH 7 0
BBX 5 7 1 0
BITMAP
50
88
88
88
A8
A8
50
ENDCHAR
STARTCHAR uni03D0
ENCODING 976
SWIDTH 466 0
DWIDTH 7 0
BBX 5 9 1 0
BITMAP
60
90
90
90
F0
88
88
88
70
ENDCHAR
STARTCHAR theta1
ENCODING 977
SWIDTH 466 0
DWIDTH 7 0
BBX 6 9 1 0
BITMAP
70
88
88
48
3C
88
88
88
70
ENDCHAR
STARTCHAR Upsilon1
ENCODING 978
SWIDTH 466 0
DWIDTH 7 0
BBX 6 9 1 0
BITMAP
88
54
50
50
20
20
20
20
20
ENDCHAR
STARTCHAR phi1
ENCODING 981
SWIDTH 466 0
DWIDTH 7 0
BBX 5 13 1 -3
BITMAP
20
20
20
70
A8
A8
A8
A8
A8
70
20
20
20
ENDCHAR
STARTCHAR uni03F4
ENCODING 1012
SWIDTH 466 0
DWIDTH 7 0
BBX 6 9 1 0
BITMAP
78
84
84
84
FC
84
84
84
78
ENDCHAR
STARTCHAR uni2010
ENCODING 8208
SWIDTH 466 0
DWIDTH 7 0
BBX 4 1 2 4
BITMAP
F0
ENDCHAR
STARTCHAR uni2011
ENCODING 8209
SWIDTH 466 0
DWIDTH 7 0
BBX 4 1 2 4
BITMAP
F0
ENDCHAR
STARTCHAR figuredash
ENCODING 8210
SWIDTH 466 0
DWIDTH 7 0
BBX 5 1 1 4
BITMAP
F8
ENDCHAR
STARTCHAR endash
ENCODING 8211
SWIDTH 466 0
DWIDTH 7 0
BBX 5 1 1 4
BITMAP
F8
ENDCHAR
STARTCHAR emdash
ENCODING 8212
SWIDTH 466 0
DWIDTH 7 0
BBX 7 1 0 4
BITMAP
FE
ENDCHAR
STARTCHAR uni2015
ENCODING 8213
SWIDTH 466 0
DWIDTH 7 0
BBX 7 1 0 4
BITMAP
FE
ENDCHAR
STARTCHAR quoteleft
ENCODING 8216
SWIDTH 466 0
DWIDTH 7 0
BBX 2 4 3 6
BITMAP
40
80
80
C0
ENDCHAR
STARTCHAR quoteright
ENCODING 8217
SWIDTH 466 0
DWIDTH 7 0
BBX 2 4 2 6
BITMAP
C0
40
40
80
ENDCHAR
STARTCHAR quotesinglbase
ENCODING 8218
SWIDTH 466 0
DWIDTH 7 0
BBX 2 4 2 -2
BITMAP
C0
40
40
80
ENDCHAR
STARTCHAR quotereversed
ENCODING 8219
SWIDTH 466 0
DWIDTH 7 0
BBX 2 4 3 6
BITMAP
C0
80
80
40
ENDCHAR
STARTCHAR quotedblleft
ENCODING 8220
SWIDTH 466 0
DWIDTH 7 0
BBX 5 4 1 6
BITMAP
48
90
90
D8
ENDCHAR
STARTCHAR quotedblright
ENCODING 8221
SWIDTH 466 0
DWIDTH 7 0
BBX 5 4 1 6
BITMAP
D8
48
48
90
ENDCHAR
STARTCHAR quotedblbase
ENCODING 8222
SWIDTH 466 0
DWIDTH 7 0
BBX 5 4 1 -2
BITMAP
D8
48
48
90
ENDCHAR
STARTCHAR uni201F
ENCODING 8223
SWIDTH 466 0
DWIDTH 7 0
BBX 5 4 1 6
BITMAP
D8
90
90
48
ENDCHAR
STARTCHAR dagger
ENCODING 8224
SWIDTH 466 0
DWIDTH 7 0
BBX 5 10 1 -1
BITMAP
20
20
20
F8
20
20
20
20
20
20
ENDCHAR
STARTCHAR daggerdbl
ENCODING 8225
SWIDTH 466 0
DWIDTH 7 0
BBX 5 10 1 -1
BITMAP
20
20
20
F8
20
20
F8
20
20
20
ENDCHAR
STARTCHAR bullet
ENCODING 8226
SWIDTH 466 0
DWIDTH 7 0
BBX 4 4 2 3
BITMAP
60
F0
F0
60
ENDCHAR
STARTCHAR onedotenleader
ENCODING 8228
SWIDTH 466 0
DWIDTH 7 0
BBX 1 2 3 0
BITMAP
80
80
ENDCHAR
STARTCHAR twodotenleader
ENCODING 8229
SWIDTH 466 0
DWIDTH 7 0
BBX 4 2 2 0
BITMAP
90
90
ENDCHAR
STARTCHAR ellipsis
ENCODING 8230
SWIDTH 466 0
DWIDTH 7 0
BBX 5 2 1 0
BITMAP
A8
A8
ENDCHAR
STARTCHAR perthousand
ENCODING 8240
SWIDTH 466 0
DWIDTH 7 0
BBX 6 9 1 0
BITMAP
40
A0
48
10
20
40
A8
54
28
ENDCHAR
STARTCHAR guilsinglleft
ENCODING 8249
SWIDTH 466 0
DWIDTH 7 0
BBX 3 5 2 1
BITMAP
20
40
80
40
20
ENDCHAR
STARTCHAR guilsinglright
ENCODING 8250
SWIDTH 466 0
DWIDTH 7 0
BBX 3 5 2 1
BITMAP
80
40
20
40
80
ENDCHAR
STARTCHAR uni203B
ENCODING 8251
SWIDTH 466 0
DWIDTH 7 0
BBX 7 7 0 1
BITMAP
10
44
28
92
28
44
10
ENDCHAR
STARTCHAR uni203D
ENCODING 8253
SWIDTH 466 0
DWIDTH 7 0
BBX 5 9 1 0
BITMAP
70
A8
A8
30
20
20
00
20
20
ENDCHAR
STARTCHAR uni25CC
ENCODING 9676
SWIDTH 466 0
DWIDTH 7 0
BBX 7 7 0 1
BITMAP
10
44
00
82
00
44
10
ENDCHAR
STARTCHAR uni26A0
ENCODING 9888
SWIDTH 933 0
DWIDTH 14 0
BBX 11 12 2 -1
BITMAP
0400
0400
0A00
0A00
1100
1500
2480
2480
4040
4440
8020
FFE0
ENDCHAR
STARTCHAR uni2713
ENCODING 10003
SWIDTH 466 0
DWIDTH 7 0
BBX 7 9 0 0
BITMAP
02
02
04
04
08
08
90
50
20
ENDCHAR
STARTCHAR uni2714
ENCODING 10004
SWIDTH 466 0
DWIDTH 7 0
BBX 7 9 0 0
BITMAP
02
06
04
0C
08
98
D0
70
20
ENDCHAR
STARTCHAR uni2715
ENCODING 10005
SWIDTH 466 0
DWIDTH 7 0
BBX 5 5 1 2
BITMAP
88
50
20
50
88
ENDCHAR
STARTCHAR uni2716
ENCODING 10006
SWIDTH 466 0
DWIDTH 7 0
BBX 7 7 0 1
BITMAP
44
EE
7C
38
7C
EE
44
ENDCHAR
STARTCHAR uni2717
ENCODING 10007
SWIDTH 466 0
DWIDTH 7 0
BBX 6 9 1 0
BITMAP
04
48
50
20
60
50
90
88
80
ENDCHAR
STARTCHAR uni2718
ENCODING 10008
SWIDTH 466 0
DWIDTH 7 0
BBX 6 9 1 0
BITMAP
04
8C
D8
70
60
70
D8
88
80
ENDCHAR
STARTCHAR uni274C
ENCODING 10060
SWIDTH 933 0
DWIDTH 14 0
BBX 13 13 1 -2
BITMAP
4010
E038
7070
38E0
1DC0
0F80
0700
0F80
1DC0
38E0
7070
E038
4010
ENDCHAR
STARTCHAR uni27E6
ENCODING 10214
SWIDTH 500 0
DWIDTH 7 0
BBX 5 11 1 -1
BITMAP
F8
A0
A0
A0
A0
A0
A0
A0
A0
A0
F8
ENDCHAR
STARTCHAR uni27E7
ENCODING 10215
SWIDTH 500 0
DWIDTH 7 0
BBX 5 11 1 -1
BITMAP
F8
28
28
28
28
28
28
28
28
28
F8
ENDCHAR
STARTCHAR uni2801
ENCODING 10241
SWIDTH 466 0
DWIDTH 7 0
BBX 2 2 1 8
BITMAP
C0
C0
ENDCHAR
STARTCHAR uni2802
ENCODING 10242
SWIDTH 466 0
DWIDTH 7 0
BBX 2 2 1 4
BITMAP
C0
C0
ENDCHAR
STARTCHAR uni2803
ENCODING 10243
SWIDTH 466 0
DWIDTH 7 0
BBX 2 6 1 4
BITMAP
C0
C0
00
00
C0
C0
ENDCHAR
STARTCHAR uni2804
ENCODING 10244
SWIDTH 466 0
DWIDTH 7 0
BBX 2 2 1 0
BITMAP
C0
C0
ENDCHAR
STARTCHAR uni2805
ENCODING 10245
SWIDTH 466 0
DWIDTH 7 0
BBX 2 10 1 0
BITMAP
C0
C0
00
00
00
00
00
00
C0
C0
ENDCHAR
STARTCHAR uni2806
ENCODING 10246
SWIDTH 466 0
DWIDTH 7 0
BBX 2 6 1 0
BITMAP
C0
C0
00
00
C0
C0
ENDCHAR
STARTCHAR uni2807
ENCODING 10247
SWIDTH 466 0
DWIDTH 7 0
BBX 2 10 1 0
BITMAP
C0
C0
00
00
C0
C0
00
00
C0
C0
ENDCHAR
STARTCHAR uni2808
ENCODING 10248
SWIDTH 466 0
DWIDTH 7 0
BBX 2 2 5 8
BITMAP
C0
C0
ENDCHAR
STARTCHAR uni2809
ENCODING 10249
SWIDTH 466 0
DWIDTH 7 0
BBX 6 2 1 8
BITMAP
CC
CC
ENDCHAR
STARTCHAR uni280A
ENCODING 10250
SWIDTH 466 0
DWIDTH 7 0
BBX 6 6 1 4
BITMAP
0C
0C
00
00
C0
C0
ENDCHAR
STARTCHAR uni280B
ENCODING 10251
SWIDTH 466 0
DWIDTH 7 0
BBX 6 6 1 4
BITMAP
CC
CC
00
00
C0
C0
ENDCHAR
STARTCHAR uni280C
ENCODING 10252
SWIDTH 466 0
DWIDTH 7 0
BBX 6 10 1 0
BITMAP
0C
0C
00
00
00
00
00
00
C0
C0
ENDCHAR
STARTCHAR uni280D
ENCODING 10253
SWIDTH 466 0
DWIDTH 7 0
BBX 6 10 1 0
BITMAP
CC
CC
00
00
00
00
00
00
C0
C0
ENDCHAR
STARTCHAR uni280E
ENCODING 10254
SWIDTH 466 0
DWIDTH 7 0
BBX 6 10 1 0
BITMAP
0C
0C
00
00
C0
C0
00
00
C0
C0
ENDCHAR
STARTCHAR uni280F
ENCODING 10255
SWIDTH 466 0
DWIDTH 7 0
BBX 6 10 1 0
BITMAP
CC
CC
00
00
C0
C0
00
00
C0
C0
ENDCHAR
STARTCHAR uni2810
ENCODING 10256
SWIDTH 466 0
DWIDTH 7 0
BBX 2 2 5 4
BITMAP
C0
C0
ENDCHAR
STARTCHAR uni2811
ENCODING 10257
SWIDTH 466 0
DWIDTH 7 0
BBX 6 6 1 4
BITMAP
C0
C0
00
00
0C
0C
ENDCHAR
STARTCHAR uni2812
ENCODING 10258
SWIDTH 466 0
DWIDTH 7 0
BBX 6 2 1 4
BITMAP
CC
CC
ENDCHAR
STARTCHAR uni2813
ENCODING 10259
SWIDTH 466 0
DWIDTH 7 0
BBX 6 6 1 4
BITMAP
C0
C0
00
00
CC
CC
ENDCHAR
STARTCHAR uni2814
ENCODING 10260
SWIDTH 466 0
DWIDTH 7 0
BBX 6 6 1 0
BITMAP
0C
0C
00
00
C0
C0
ENDCHAR
STARTCHAR uni2815
ENCODING 10261
SWIDTH 466 0
DWIDTH 7 0
BBX 6 10 1 0
BITMAP
C0
C0
00
00
0C
0C
00
00
C0
C0
ENDCHAR
STARTCHAR uni2816
ENCODING 10262
SWIDTH 466 0
DWIDTH 7 0
BBX 6 6 1 0
BITMAP
CC
CC
00
00
C0
C0
ENDCHAR
STARTCHAR uni2817
ENCODING 10263
SWIDTH 466 0
DWIDTH 7 0
BBX 6 10 1 0
BITMAP
C0
C0
00
00
CC
CC
00
00
C0
C0
ENDCHAR
STARTCHAR uni2818
ENCODING 10264
SWIDTH 466 0
DWIDTH 7 0
BBX 2 6 5 4
BITMAP
C0
C0
00
00
C0
C0
ENDCHAR
STARTCHAR uni2819
ENCODING 10265
SWIDTH 466 0
DWIDTH 7 0
BBX 6 6 1 4
BITMAP
CC
CC
00
00
0C
0C
ENDCHAR
STARTCHAR uni281A
ENCODING 10266
SWIDTH 466 0
DWIDTH 7 0
BBX 6 6 1 4
BITMAP
0C
0C
00
00
CC
CC
ENDCHAR
STARTCHAR uni281B
ENCODING 10267
SWIDTH 466 0
DWIDTH 7 0
BBX 6 6 1 4
BITMAP
CC
CC
00
00
CC
CC
ENDCHAR
STARTCHAR uni281C
ENCODING 10268
SWIDTH 466 0
DWIDTH 7 0
BBX 6 10 1 0
BITMAP
0C
0C
00
00
0C
0C
00
00
C0
C0
ENDCHAR
STARTCHAR uni281D
ENCODING 10269
SWIDTH 466 0
DWIDTH 7 0
BBX 6 10 1 0
BITMAP
CC
CC
00
00
0C
0C
00
00
C0
C0
ENDCHAR
STARTCHAR uni281E
ENCODING 10270
SWIDTH 466 0
DWIDTH 7 0
BBX 6 10 1 0
BITMAP
0C
0C
00
00
CC
CC
00
00
C0
C0
ENDCHAR
STARTCHAR uni281F
ENCODING 10271
SWIDTH 466 0
DWIDTH 7 0
BBX 6 10 1 0
BITMAP
CC
CC
00
00
CC
CC
00
00
C0
C0
ENDCHAR
STARTCHAR uni2820
ENCODING 10272
SWIDTH 466 0
DWIDTH 7 0
BBX 2 2 5 0
BITMAP
C0
C0
ENDCHAR
STARTCHAR uni2821
ENCODING 10273
SWIDTH 466 0
DWIDTH 7 0
BBX 6 10 1 0
BITMAP
C0
C0
00
00
00
00
00
00
0C
0C
ENDCHAR
STARTCHAR uni2822
ENCODING 10274
SWIDTH 466 0
DWIDTH 7 0
BBX 6 6 1 0
BITMAP
C0
C0
00
00
0C
0C
ENDCHAR
STARTCHAR uni2823
ENCODING 10275
SWIDTH 466 0
DWIDTH 7 0
BBX 6 10 1 0
BITMAP
C0
C0
00
00
C0
C0
00
00
0C
0C
ENDCHAR
STARTCHAR uni2824
ENCODING 10276
SWIDTH 466 0
DWIDTH 7 0
BBX 6 2 1 0
BITMAP
CC
CC
ENDCHAR
STARTCHAR uni2825
ENCODING 10277
SWIDTH 466 0
DWIDTH 7 0
BBX 6 10 1 0
BITMAP
C0
C0
00
00
00
00
00
00
CC
CC
ENDCHAR
STARTCHAR uni2826
ENCODING 10278
SWIDTH 466 0
DWIDTH 7 0
BBX 6 6 1 0
BITMAP
C0
C0
00
00
CC
CC
ENDCHAR
STARTCHAR uni2827
ENCODING 10279
SWIDTH 466 0
DWIDTH 7 0
BBX 6 10 1 0
BITMAP
C0
C0
00
00
C0
C0
00
00
CC
CC
ENDCHAR
STARTCHAR uni2828
ENCODING 10280
SWIDTH 466 0
DWIDTH 7 0
BBX 2 10 5 0
BITMAP
C0
C0
00
00
00
00
00
00
C0
C0
ENDCHAR
STARTCHAR uni2829
ENCODING 10281
SWIDTH 466 0
DWIDTH 7 0
BBX 6 10 1 0
BITMAP
CC
CC
00
00
00
00
00
00
0C
0C
ENDCHAR
STARTCHAR uni282A
ENCODING 10282
SWIDTH 466 0
DWIDTH 7 0
BBX 6 10 1 0
BITMAP
0C
0C
00
00
C0
C0
00
00
0C
0C
ENDCHAR
STARTCHAR uni282B
ENCODING 10283
SWIDTH 466 0
DWIDTH 7 0
BBX 6 10 1 0
BITMAP
CC
CC
00
00
C0
C0
00
00
0C
0C
ENDCHAR
STARTCHAR uni282C
ENCODING 10284
SWIDTH 466 0
DWIDTH 7 0
BBX 6 10 1 0
BITMAP
0C
0C
00
00
00
00
00
00
CC
CC
ENDCHAR
STARTCHAR uni282D
ENCODING 10285
SWIDTH 466 0
DWIDTH 7 0
BBX 6 10 1 0
BITMAP
CC
CC
00
00
00
00
00
00
CC
CC
ENDCHAR
STARTCHAR uni282E
ENCODING 10286
SWIDTH 466 0
DWIDTH 7 0
BBX 6 10 1 0
BITMAP
0C
0C
00
00
C0
C0
00
00
CC
CC
ENDCHAR
STARTCHAR uni282F
ENCODING 10287
SWIDTH 466 0
DWIDTH 7 0
BBX 6 10 1 0
BITMAP
CC
CC
00
00
C0
C0
00
00
CC
CC
ENDCHAR
STARTCHAR uni2830
ENCODING 10288
SWIDTH 466 0
DWIDTH 7 0
BBX 2 6 5 0
BITMAP
C0
C0
00
00
C0
C0
ENDCHAR
STARTCHAR uni2831
ENCODING 10289
SWIDTH 466 0
DWIDTH 7 0
BBX 6 10 1 0
BITMAP
C0
C0
00
00
0C
0C
00
00
0C
0C
ENDCHAR
STARTCHAR uni2832
ENCODING 10290
SWIDTH 466 0
DWIDTH 7 0
BBX 6 6 1 0
BITMAP
CC
CC
00
00
0C
0C
ENDCHAR
STARTCHAR uni2833
ENCODING 10291
SWIDTH 466 0
DWIDTH 7 0
BBX 6 10 1 0
BITMAP
C0
C0
00
00
CC
CC
00
00
0C
0C
ENDCHAR
STARTCHAR uni2834
ENCODING 10292
SWIDTH 466 0
DWIDTH 7 0
BBX 6 6 1 0
BITMAP
0C
0C
00
00
CC
CC
ENDCHAR
STARTCHAR uni2835
ENCODING 10293
SWIDTH 466 0
DWIDTH 7 0
BBX 6 10 1 0
BITMAP
C0
C0
00
00
0C
0C
00
00
CC
CC
ENDCHAR
STARTCHAR uni2836
ENCODING 10294
SWIDTH 466 0
DWIDTH 7 0
BBX 6 6 1 0
BITMAP
CC
CC
00
00
CC
CC
ENDCHAR
STARTCHAR uni2837
ENCODING 10295
SWIDTH 466 0
DWIDTH 7 0
BBX 6 10 1 0
BITMAP
C0
C0
00
00
CC
CC
00
00
CC
CC
ENDCHAR
STARTCHAR uni2838
ENCODING 10296
SWIDTH 466 0
DWIDTH 7 0
BBX 2 10 5 0
BITMAP
C0
C0
00
00
C0
C0
00
00
C0
C0
ENDCHAR
STARTCHAR uni2839
ENCODING 10297
SWIDTH 466 0
DWIDTH 7 0
BBX 6 10 1 0
BITMAP
CC
CC
00
00
0C
0C
00
00
0C
0C
ENDCHAR
STARTCHAR uni283A
ENCODING 10298
SWIDTH 466 0
DWIDTH 7 0
BBX 6 10 1 0
BITMAP
0C
0C
00
00
CC
CC
00
00
0C
0C
ENDCHAR
STARTCHAR uni283B
ENCODING 10299
SWIDTH 466 0
DWIDTH 7 0
BBX 6 10 1 0
BITMAP
CC
CC
00
00
CC
CC
00
00
0C
0C
ENDCHAR
STARTCHAR uni283C
ENCODING 10300
SWIDTH 466 0
DWIDTH 7 0
BBX 6 10 1 0
BITMAP
0C
0C
00
00
0C
0C
00
00
CC
CC
ENDCHAR
STARTCHAR uni283D
ENCODING 10301
SWIDTH 466 0
DWIDTH 7 0
BBX 6 10 1 0
BITMAP
CC
CC
00
00
0C
0C
00
00
CC
CC
ENDCHAR
STARTCHAR uni283E
ENCODING 10302
SWIDTH 466 0
DWIDTH 7 0
BBX 6 10 1 0
BITMAP
0C
0C
00
00
CC
CC
00
00
CC
CC
ENDCHAR
STARTCHAR uni283F
ENCODING 10303
SWIDTH 466 0
DWIDTH 7 0
BBX 6 10 1 0
BITMAP
CC
CC
00
00
CC
CC
00
00
CC
CC
ENDCHAR
STARTCHAR uni2B61
ENCODING 11105
SWIDTH 466 0
DWIDTH 7 0
BBX 5 10 1 0
BITMAP
20
70
F8
20
20
20
20
20
20
20
ENDCHAR
STARTCHAR uni2B63
ENCODING 11107
SWIDTH 466 0
DWIDTH 7 0
BBX 5 10 1 0
BITMAP
20
20
20
20
20
20
20
F8
70
20
ENDCHAR
STARTCHAR uni2B81
ENCODING 11137
SWIDTH 466 0
DWIDTH 7 0
BBX 8 10 0 0
BITMAP
24
74
FC
24
24
24
24
3F
2E
24
ENDCHAR
STARTCHAR uni2B83
ENCODING 11139
SWIDTH 466 0
DWIDTH 7 0
BBX 8 10 0 0
BITMAP
24
2E
3F
24
24
24
24
FC
74
24
ENDCHAR
STARTCHAR uni2E28
ENCODING 11816
SWIDTH 466 0
DWIDTH 7 0
BBX 6 11 1 -1
BITMAP
24
48
48
90
90
90
90
90
48
48
24
ENDCHAR
STARTCHAR uni2E29
ENCODING 11817
SWIDTH 466 0
DWIDTH 7 0
BBX 6 11 1 -1
BITMAP
90
48
48
24
24
24
24
24
48
48
90
ENDCHAR
STARTCHAR LIG
ENCODING -1
SWIDTH 466 0
DWIDTH 7 0
BBX 1 1 0 0
BITMAP
00
ENDCHAR
STARTCHAR hyphen_greater.liga
ENCODING -1
SWIDTH 466 0
DWIDTH 7 0
BBX 11 9 -5 0
BITMAP
0200
0100
0080
0040
FFE0
0040
0080
0100
0200
ENDCHAR
STARTCHAR hyphen_hyphen_greater.liga
ENCODING -1
SWIDTH 466 0
DWIDTH 7 0
BBX 18 9 -12 0
BITMAP
000400
000200
000100
000080
FFFFC0
000080
000100
000200
000400
ENDCHAR
STARTCHAR equal_greater.liga
ENCODING -1
SWIDTH 466 0
DWIDTH 7 0
BBX 12 9 -6 0
BITMAP
0100
0080
FFC0
0020
0010
0020
FFC0
0080
0100
ENDCHAR
STARTCHAR equal_equal_greater.liga
ENCODING -1
SWIDTH 466 0
DWIDTH 7 0
BBX 19 9 -13 0
BITMAP
000200
000100
FFFF80
000040
000020
000040
FFFF80
000100
000200
ENDCHAR
STARTCHAR less_equal_equal.liga
ENCODING -1
SWIDTH 466 0
DWIDTH 7 0
BBX 19 9 -13 0
BITMAP
080000
100000
3FFFE0
400000
800000
400000
3FFFE0
100000
080000
ENDCHAR
STARTCHAR less_hyphen_hyphen.liga
ENCODING -1
SWIDTH 466 0
DWIDTH 7 0
BBX 19 9 -13 0
BITMAP
080000
100000
200000
400000
FFFFE0
400000
200000
100000
080000
ENDCHAR
STARTCHAR less_hyphen.liga
ENCODING -1
SWIDTH 466 0
DWIDTH 7 0
BBX 12 9 -6 0
BITMAP
0800
1000
2000
4000
FFF0
4000
2000
1000
0800
ENDCHAR
STARTCHAR less_exclam_hyphen_hyphen.liga
ENCODING -1
SWIDTH 466 0
DWIDTH 7 0
BBX 26 9 -20 0
BITMAP
08800000
10800000
20800000
40800000
FEBFFFC0
40800000
20000000
10800000
08800000
ENDCHAR
STARTCHAR less_equal_greater.liga
ENCODING -1
SWIDTH 466 0
DWIDTH 7 0
BBX 19 9 -13 0
BITMAP
080200
100100
3FFF80
400040
800020
400040
3FFF80
100100
080200
ENDCHAR
STARTCHAR equal_equal.liga
ENCODING -1
SWIDTH 466 0
DWIDTH 7 0
BBX 12 5 -6 2
BITMAP
FFF0
0000
0000
0000
FFF0
ENDCHAR
STARTCHAR equal_equal_equal.liga
ENCODING -1
SWIDTH 466 0
DWIDTH 7 0
BBX 19 7 -13 1
BITMAP
FDF7E0
000000
000000
FDF7E0
000000
000000
FDF7E0
ENDCHAR
STARTCHAR exclam_equal.liga
ENCODING -1
SWIDTH 466 0
DWIDTH 7 0
BBX 12 9 -6 0
BITMAP
0100
0200
FFF0
0400
0800
1000
FFF0
2000
4000
ENDCHAR
STARTCHAR exclam_equal_equal.liga
ENCODING -1
SWIDTH 466 0
DWIDTH 7 0
BBX 19 9 -13 0
BITMAP
004000
FDF7E0
008000
010000
FFF7E0
040000
080000
FDF7E0
100000
ENDCHAR
ENDFONT
